<svg width="27" height="27" viewBox="0 0 27 27" fill="none" xmlns="http://www.w3.org/2000/svg">
<path d="M13.5 26C20.4036 26 26 20.4036 26 13.5C26 6.59644 20.4036 1 13.5 1C6.59644 1 1 6.59644 1 13.5C1 20.4036 6.59644 26 13.5 26Z" stroke="black" stroke-width="2" stroke-linecap="round" stroke-linejoin="round"/>
<path d="M13.4997 20.9998C17.6419 20.9998 20.9997 17.6419 20.9997 13.4998C20.9997 9.35762 17.6419 5.99976 13.4997 5.99976C9.35759 5.99976 5.99973 9.35762 5.99973 13.4998C5.99973 17.6419 9.35759 20.9998 13.4997 20.9998Z" stroke="black" stroke-width="2" stroke-linecap="round" stroke-linejoin="round"/>
<path d="M13.5001 16.0001C14.8808 16.0001 16.0001 14.8808 16.0001 13.5001C16.0001 12.1194 14.8808 11.0001 13.5001 11.0001C12.1194 11.0001 11.0001 12.1194 11.0001 13.5001C11.0001 14.8808 12.1194 16.0001 13.5001 16.0001Z" stroke="black" stroke-width="2" stroke-linecap="round" stroke-linejoin="round"/>
</svg>
