<svg width="52" height="52" viewBox="0 0 52 52" fill="none" xmlns="http://www.w3.org/2000/svg">
<path d="M42.3497 16.4082L39.0325 13.0065L35.9082 15.8037L33.8303 17.667L42.2283 26.3055L36.972 31.7135L33.8282 34.9462C35.0198 36.0273 36.192 37.0912 37.3815 38.1658L39.0368 39.6695L43.8252 34.736L52 26.3033L42.3497 16.4082ZM6.48267 19.656L0 26.3033C4.355 30.7948 8.6515 35.2192 12.9653 39.6652L14.0703 38.6598L18.1718 34.944L15.0367 31.72L9.77167 26.3033L16.5078 19.3787L18.1697 17.6692C17.2293 16.8242 16.3063 15.9965 15.379 15.1688L12.9653 13L6.48267 19.656ZM33.7502 6.57368L25.2027 46.8L24.778 46.7155L18.2152 45.4263L23.751 19.383L26.7648 5.20001L33.7502 6.57368Z" fill="black"/>
</svg>
