<svg width="52" height="52" viewBox="0 0 52 52" fill="none" xmlns="http://www.w3.org/2000/svg">
<path d="M25.0859 1.89478C16.8629 1.89478 10.1689 8.49837 10.1689 16.6848C10.1689 21.3191 11.7694 23.4895 13.5523 26.3175C14.7412 28.2035 15.9661 30.3709 16.653 33.4841H33.4205C34.1038 30.2963 35.341 28.0891 36.5403 26.1843C38.3257 23.3486 39.9237 21.2166 39.9237 16.6849C39.9237 8.49288 33.3093 1.89498 25.086 1.89498L25.0859 1.89478ZM14.952 14.8852L17.31 16.961L21.3281 20.4967L24.4957 17.0308L25.1842 16.2754L25.8857 17.0213L29.0088 20.3444L33.0682 16.9451L35.3723 15.0154L34.5948 17.9195L30.9512 31.5128L29.1166 31.0211L31.9827 20.3316L29.542 22.3756L28.8534 22.95L28.2407 22.2959L25.2033 19.0683L22.0994 22.4643L21.4709 23.1529L20.7727 22.5373L18.4114 20.4616L21.249 31.0463L19.4144 31.535L15.7645 17.9192L14.952 14.885V14.8852ZM17.2466 35.3819V39.5586L31.9922 35.3819H17.2466ZM32.8459 37.1148L17.2465 41.5358V44.5256L32.8459 40.1077V37.1146V37.1148ZM32.8459 42.0787L20.7157 45.5159H32.8459V42.0787ZM19.3826 47.4138V49.4991H30.8878V47.4141H19.3828L19.3826 47.4138Z" fill="black"/>
</svg>
