<svg width="52" height="52" viewBox="0 0 52 52" fill="none" xmlns="http://www.w3.org/2000/svg">
<path d="M15.1666 47.6666H36.8333" stroke="black" stroke-width="1.5" stroke-linecap="round" stroke-linejoin="round"/>
<path d="M4.33331 36.8333V8.66665C4.33331 7.51737 4.78986 6.41517 5.60252 5.60252C6.41517 4.78986 7.51737 4.33331 8.66665 4.33331H43.3333C44.4826 4.33331 45.5848 4.78986 46.3974 5.60252C47.2101 6.41517 47.6666 7.51737 47.6666 8.66665V36.8333C47.6666 37.9826 47.2101 39.0848 46.3974 39.8974C45.5848 40.7101 44.4826 41.1666 43.3333 41.1666H8.66665C7.51737 41.1666 6.41517 40.7101 5.60252 39.8974C4.78986 39.0848 4.33331 37.9826 4.33331 36.8333Z" stroke="black" stroke-width="1.5"/>
<path d="M19.5 22.75L23.8333 27.0833L32.5 18.4166" stroke="black" stroke-width="1.5" stroke-linecap="round" stroke-linejoin="round"/>
</svg>
