<svg width="55" height="44" viewBox="0 0 55 44" fill="none" xmlns="http://www.w3.org/2000/svg">
<path d="M27.5 0.5C28.0967 0.5 28.6689 0.737223 29.0908 1.15918C29.5128 1.58114 29.75 2.15326 29.75 2.75V8.75H39.875C40.7122 8.74973 41.5419 8.91411 42.3154 9.23438C43.0889 9.55464 43.7918 10.0243 44.3838 10.6162C44.9757 11.2082 45.4454 11.9111 45.7656 12.6846C46.0859 13.4581 46.2503 14.2878 46.25 15.125V38.5C46.2486 39.8256 45.7216 41.0968 44.7842 42.0342C43.8467 42.9717 42.5748 43.4987 41.249 43.5H13.751C12.4252 43.4987 11.1533 42.9717 10.2158 42.0342C9.27833 41.0967 8.7513 39.8248 8.75 38.499V15.125L8.75781 14.8115C8.79352 14.0813 8.95412 13.3615 9.23438 12.6846C9.55464 11.9111 10.0243 11.2082 10.6162 10.6162C11.2082 10.0243 11.9111 9.55464 12.6846 9.23438C13.3615 8.95412 14.0813 8.79352 14.8115 8.75781L15.125 8.75H25.25V2.75C25.25 2.15326 25.4872 1.58114 25.9092 1.15918C26.3311 0.737223 26.9033 0.5 27.5 0.5ZM16 36.25H22.5V32.5H16V36.25ZM24.25 36.25H30.75V32.5H24.25V36.25ZM32.5 36.25H39V32.5H32.5V36.25ZM52.251 19.75C52.5464 19.7497 52.8393 19.808 53.1123 19.9209C53.3852 20.0338 53.633 20.1994 53.8418 20.4082C54.0506 20.617 54.2162 20.8648 54.3291 21.1377C54.442 21.4107 54.5003 21.7036 54.5 21.999V33.001C54.5003 33.2964 54.442 33.5893 54.3291 33.8623C54.2162 34.1352 54.0506 34.383 53.8418 34.5918C53.633 34.8006 53.3852 34.9662 53.1123 35.0791C52.8393 35.192 52.5464 35.2503 52.251 35.25H50V19.75H52.251ZM20.7568 18.3623C20.0374 18.0643 19.2452 17.9858 18.4814 18.1377C17.7178 18.2897 17.0164 18.6652 16.4658 19.2158C15.9152 19.7664 15.5397 20.4678 15.3877 21.2314C15.2358 21.9952 15.3143 22.7874 15.6123 23.5068C15.9103 24.2262 16.4151 24.8408 17.0625 25.2734C17.71 25.7061 18.4712 25.9375 19.25 25.9375C19.7671 25.9375 20.2791 25.8356 20.7568 25.6377C21.2346 25.4398 21.6686 25.1498 22.0342 24.7842C22.3998 24.4186 22.6898 23.9846 22.8877 23.5068C23.0856 23.0291 23.1875 22.5171 23.1875 22C23.1875 21.2212 22.9561 20.46 22.5234 19.8125C22.0908 19.1651 21.4762 18.6603 20.7568 18.3623ZM37.2568 18.3623C36.5374 18.0643 35.7452 17.9858 34.9814 18.1377C34.2178 18.2897 33.5164 18.6652 32.9658 19.2158C32.4152 19.7664 32.0397 20.4678 31.8877 21.2314C31.7358 21.9952 31.8143 22.7874 32.1123 23.5068C32.4103 24.2262 32.9151 24.8408 33.5625 25.2734C34.21 25.7061 34.9712 25.9375 35.75 25.9375C36.2671 25.9375 36.7791 25.8356 37.2568 25.6377C37.7346 25.4398 38.1686 25.1498 38.5342 24.7842C38.8998 24.4186 39.1898 23.9846 39.3877 23.5068C39.5856 23.0291 39.6875 22.5171 39.6875 22C39.6875 21.2212 39.4561 20.46 39.0234 19.8125C38.5908 19.1651 37.9762 18.6603 37.2568 18.3623ZM0.5 21.999C0.499676 21.7036 0.558033 21.4107 0.670898 21.1377C0.783804 20.8648 0.949391 20.617 1.1582 20.4082C1.36702 20.1994 1.61483 20.0338 1.8877 19.9209C2.09243 19.8362 2.30863 19.7822 2.52832 19.7607L2.74902 19.75H5V35.25H2.74902C2.45365 35.2503 2.16066 35.192 1.8877 35.0791C1.61483 34.9662 1.36702 34.8006 1.1582 34.5918C0.949391 34.383 0.783804 34.1352 0.670898 33.8623C0.558033 33.5893 0.499676 33.2964 0.5 33.001V21.999Z" fill="black" stroke="#BDBDBD"/>
</svg>
