<svg width="53" height="55" viewBox="0 0 53 55" fill="none" xmlns="http://www.w3.org/2000/svg">
<path d="M19.0506 0.501229L19.8877 4.67847L19.9376 4.93202L20.1745 5.03677C20.9007 5.3618 21.5913 5.76186 22.2352 6.22915L22.4447 6.38089L22.6894 6.29767L26.7257 4.93202L30.3038 11.1298L27.1036 13.9444L26.9098 14.1147L26.9362 14.3722C27.0174 15.164 27.0174 15.9622 26.9362 16.754L26.9098 17.0115L27.1036 17.1818L30.3058 19.9934L26.7267 26.1922L22.6885 24.8265L22.4427 24.7433L22.2332 24.895C21.5894 25.3628 20.8988 25.7629 20.1725 26.0884L19.9366 26.1941L19.8857 26.4477L19.0506 30.6239H11.8934L11.0584 26.4477L11.0075 26.1941L10.7715 26.0884L10.4994 25.9621C9.86886 25.6603 9.27143 25.3022 8.71082 24.896L8.50132 24.7443L8.2556 24.8275L4.21836 26.1922L0.638284 19.9944L3.84048 17.1818L4.03529 17.0105L4.00886 16.754C3.92759 15.9622 3.92762 15.164 4.00886 14.3722L4.03529 14.1147L3.84048 13.9444L0.639263 11.1298L4.2164 4.93202L8.2556 6.29963L8.50132 6.38284L8.71082 6.23013C9.35473 5.76232 10.0462 5.36225 10.7725 5.03677L11.0084 4.93104L11.0584 4.67749L11.8934 0.501229H19.0506ZM15.4725 9.40197C13.8387 9.40197 12.2714 10.0519 11.1161 11.2072C9.96103 12.3624 9.31196 13.9289 9.3119 15.5626C9.3119 17.1964 9.96083 18.7637 11.1161 19.919C12.2714 21.0743 13.8387 21.7232 15.4725 21.7232C17.1062 21.7231 18.6727 21.0741 19.8279 19.919C20.9832 18.7637 21.6331 17.1964 21.6331 15.5626C21.6331 13.9288 20.9832 12.3624 19.8279 11.2072C18.6727 10.0519 17.1063 9.40204 15.4725 9.40197Z" fill="black" stroke="#BDBDBD"/>
<path d="M41.1047 23.5578L41.9417 27.735L41.9917 27.9886L42.2286 28.0933C42.9548 28.4184 43.6454 28.8184 44.2893 29.2857L44.4988 29.4374L44.7435 29.3542L48.7798 27.9886L52.3579 34.1864L49.1577 37.0009L48.9639 37.1713L48.9903 37.4287C49.0715 38.2205 49.0715 39.0188 48.9903 39.8105L48.9639 40.068L49.1577 40.2383L52.3599 43.0499L48.7808 49.2487L44.7426 47.8831L44.4968 47.7999L44.2873 47.9516C43.6435 48.4194 42.9529 48.8195 42.2266 49.145L41.9907 49.2507L41.9398 49.5042L41.1047 53.6805H33.9475L33.1125 49.5042L33.0616 49.2507L32.8256 49.145L32.5535 49.0187C31.923 48.7169 31.3255 48.3588 30.7649 47.9526L30.5554 47.8008L30.3097 47.8841L26.2725 49.2487L22.6924 43.0509L25.8946 40.2383L26.0894 40.067L26.063 39.8105C25.9817 39.0187 25.9817 38.2205 26.063 37.4287L26.0894 37.1713L25.8946 37.0009L22.6934 34.1864L26.2705 27.9886L30.3097 29.3562L30.5554 29.4394L30.7649 29.2867C31.4088 28.8189 32.1003 28.4188 32.8266 28.0933L33.0625 27.9876L33.1125 27.734L33.9475 23.5578H41.1047ZM37.5266 32.4585C35.8928 32.4585 34.3255 33.1084 33.1702 34.2637C32.0151 35.419 31.3661 36.9855 31.366 38.6191C31.366 40.253 32.0149 41.8202 33.1702 42.9755C34.3255 44.1308 35.8928 44.7798 37.5266 44.7798C39.1603 44.7797 40.7268 44.1306 41.882 42.9755C43.0373 41.8202 43.6872 40.253 43.6872 38.6191C43.6872 36.9854 43.0373 35.419 41.882 34.2637C40.7268 33.1085 39.1604 32.4586 37.5266 32.4585Z" fill="black" stroke="#BDBDBD"/>
</svg>
