<svg width="33" height="53" viewBox="0 0 33 53" fill="none" xmlns="http://www.w3.org/2000/svg">
<path d="M4.9502 0.5H28.0498C29.2294 0.5 30.3616 0.970749 31.1963 1.80859C32.0308 2.64647 32.5 3.78313 32.5 4.96875V48.0312C32.5 49.2169 32.0308 50.3535 31.1963 51.1914C30.3616 52.0293 29.2294 52.5 28.0498 52.5H4.9502C3.77059 52.5 2.6384 52.0293 1.80371 51.1914C0.96919 50.3535 0.5 49.2169 0.5 48.0312V4.96875C0.5 3.78313 0.969191 2.64647 1.80371 1.80859C2.63839 0.970748 3.77059 0.5 4.9502 0.5ZM16.5049 42.5713C15.4976 42.5706 14.5315 42.9717 13.8193 43.6855C13.4668 44.0389 13.187 44.4583 12.9961 44.9199C12.8052 45.3817 12.7074 45.8771 12.707 46.377C12.7064 47.3861 13.1046 48.3546 13.8154 49.0693C14.1676 49.4233 14.5864 49.7046 15.0469 49.8965C15.5073 50.0883 16.0013 50.1872 16.5 50.1875C17.5071 50.1881 18.4725 49.7869 19.1846 49.0732C19.8966 48.3594 20.2972 47.3912 20.2979 46.3818C20.2985 45.3726 19.8995 44.4042 19.1885 43.6895C18.4773 42.9746 17.5121 42.572 16.5049 42.5713Z" fill="black" stroke="#BDBDBD"/>
</svg>
