<svg width="33" height="26" viewBox="0 0 33 26" fill="none" xmlns="http://www.w3.org/2000/svg">
<path d="M2.96267 26C2.11811 26 1.4135 25.714 0.848833 25.142C0.284167 24.57 0.00122222 23.8556 0 22.9989V3.00114C0 2.14562 0.282945 1.43186 0.848833 0.859857C1.41472 0.287857 2.11872 0.00123809 2.96083 0H30.0392C30.8825 0 31.5865 0.286619 32.1512 0.859857C32.7158 1.43309 32.9988 2.14686 33 3.00114V23.0007C33 23.855 32.7171 24.5688 32.1512 25.142C31.5853 25.7152 30.8813 26.0012 30.0392 26H2.96267ZM16.5 13.2154L31.1667 3.50071L30.602 1.85714L16.5 11.1429L2.398 1.85714L1.83333 3.50071L16.5 13.2154Z" fill="black"/>
</svg>
