<svg width="33" height="47" viewBox="0 0 33 47" fill="none" xmlns="http://www.w3.org/2000/svg">
<path d="M16.5 22.325C14.9371 22.325 13.4382 21.706 12.3331 20.6043C11.228 19.5025 10.6071 18.0081 10.6071 16.45C10.6071 14.8919 11.228 13.3975 12.3331 12.2957C13.4382 11.194 14.9371 10.575 16.5 10.575C18.0629 10.575 19.5618 11.194 20.6669 12.2957C21.772 13.3975 22.3929 14.8919 22.3929 16.45C22.3929 17.2215 22.2404 17.9855 21.9443 18.6983C21.6481 19.4111 21.2141 20.0587 20.6669 20.6043C20.1197 21.1498 19.4701 21.5825 18.7551 21.8778C18.0401 22.173 17.2739 22.325 16.5 22.325ZM16.5 0C12.1239 0 7.92709 1.73312 4.83274 4.81809C1.73839 7.90307 0 12.0872 0 16.45C0 28.7875 16.5 47 16.5 47C16.5 47 33 28.7875 33 16.45C33 12.0872 31.2616 7.90307 28.1673 4.81809C25.0729 1.73312 20.8761 0 16.5 0Z" fill="black"/>
</svg>
